<svg width="41" height="41" viewBox="0 0 41 41" fill="none" xmlns="http://www.w3.org/2000/svg">
<g clip-path="url(#clip0_595_20151)">
<path d="M20.5 40.1875C31.3731 40.1875 40.1875 31.3731 40.1875 20.5C40.1875 9.62689 31.3731 0.8125 20.5 0.8125C9.62689 0.8125 0.8125 9.62689 0.8125 20.5C0.8125 31.3731 9.62689 40.1875 20.5 40.1875Z" fill="url(#paint0_linear_595_20151)"/>
<path d="M30.3249 12.3561C30.5001 11.2234 29.4232 10.3294 28.4161 10.7716L8.35677 19.5786C7.63454 19.8957 7.68737 20.9898 8.43644 21.2283L12.5731 22.5457C13.3627 22.7971 14.2176 22.667 14.9071 22.1907L24.2336 15.7473C24.5148 15.553 24.8214 15.9529 24.5811 16.2005L17.8676 23.1221C17.2164 23.7936 17.3456 24.9314 18.1291 25.4226L25.6455 30.136C26.4885 30.6647 27.573 30.1337 27.7307 29.1148L30.3249 12.3561Z" fill="white"/>
</g>
<defs>
<linearGradient id="paint0_linear_595_20151" x1="20.5" y1="0.8125" x2="20.5" y2="40.1875" gradientUnits="userSpaceOnUse">
<stop stop-color="#37BBFE"/>
<stop offset="1" stop-color="#007DBB"/>
</linearGradient>
<clipPath id="clip0_595_20151">
<rect width="41" height="41" fill="white"/>
</clipPath>
</defs>
</svg>
