<svg width="39" height="39" viewBox="0 0 39 39" fill="none" xmlns="http://www.w3.org/2000/svg">
<g clip-path="url(#clip0_595_20154)">
<path d="M13.8237 0.965347H25.1955C35.5827 0.965347 38.0346 3.43663 38.0346 13.8238V25.1955C38.0346 35.5827 35.5634 38.0347 25.1762 38.0347H13.8044C3.41731 38.0347 0.965332 35.5634 0.965332 25.1762V13.8045C0.965332 3.43663 3.43662 0.965347 13.8237 0.965347Z" fill="#5181B8"/>
<mask id="mask0_595_20154" style="mask-type:luminance" maskUnits="userSpaceOnUse" x="0" y="0" width="39" height="39">
<path d="M13.8237 0.965347H25.1955C35.5827 0.965347 38.0346 3.43663 38.0346 13.8238V25.1955C38.0346 35.5827 35.5634 38.0347 25.1762 38.0347H13.8044C3.41731 38.0347 0.965332 35.5634 0.965332 25.1762V13.8045C0.965332 3.43663 3.43662 0.965347 13.8237 0.965347Z" fill="white"/>
</mask>
<g mask="url(#mask0_595_20154)">
<path d="M0 0H39V39H0V0Z" fill="#5181B8"/>
</g>
<path fill-rule="evenodd" clip-rule="evenodd" d="M31.3158 13.7272C31.4896 13.148 31.3158 12.7426 30.5049 12.7426H27.8019C27.1069 12.7426 26.798 13.1094 26.6242 13.5149C26.6242 13.5149 25.2534 16.8743 23.3034 19.0366C22.6663 19.6738 22.396 19.8668 22.0485 19.8668C21.8747 19.8668 21.6237 19.6738 21.6237 19.0946V13.7272C21.6237 13.0322 21.4306 12.7426 20.8514 12.7426H16.6039C16.1792 12.7426 15.9089 13.0708 15.9089 13.3604C15.9089 14.0168 16.8742 14.1713 16.9901 15.9861V19.9634C16.9901 20.8322 16.8356 20.9866 16.4881 20.9866C15.5806 20.9866 13.341 17.6272 12.0282 13.7659C11.7579 13.0515 11.5069 12.7426 10.8118 12.7426H8.10886C7.33658 12.7426 7.18213 13.1094 7.18213 13.5149C7.18213 14.2292 8.08955 17.7817 11.449 22.4733C13.6886 25.6782 16.8356 27.4159 19.693 27.4159C21.4113 27.4159 21.6237 27.0297 21.6237 26.3733V23.9406C21.6237 23.1683 21.7782 23.0139 22.3381 23.0139C22.7435 23.0139 23.4193 23.2069 25.0217 24.7515C26.8559 26.5857 27.1648 27.4159 28.1881 27.4159H30.891C31.6633 27.4159 32.0495 27.0297 31.8178 26.2767C31.5668 25.5238 30.698 24.4233 29.5396 23.1104C28.9024 22.3574 27.9564 21.5659 27.6861 21.1604C27.2806 20.6391 27.3965 20.4074 27.6861 19.9634C27.6861 19.9441 30.9876 15.3104 31.3158 13.7272Z" fill="white"/>
</g>
<defs>
<clipPath id="clip0_595_20154">
<rect width="39" height="39" fill="white"/>
</clipPath>
</defs>
</svg>
