<svg width="100" height="56" viewBox="0 0 100 56" fill="none" xmlns="http://www.w3.org/2000/svg">
<path d="M14.0232 51.6867C13.6637 52.5493 13.0884 53.2682 12.4411 53.9152C11.7939 54.5622 11.0029 55.0654 10.1399 55.4248C9.27692 55.7843 8.27012 55.9999 7.33524 55.9999C6.40036 55.9999 5.39356 55.7843 4.45867 55.4248C3.59571 55.0654 2.80465 54.5622 2.15742 53.9152C1.5102 53.2682 0.934885 52.5493 0.575315 51.6867C0.215744 50.824 0 49.9614 0 49.0268C0 48.0923 0.215744 47.2296 0.575315 46.367C0.934885 45.5043 1.5102 44.7854 2.15742 44.1385C2.80465 43.4915 3.59571 42.9883 4.45867 42.6288C5.32164 42.2694 6.32844 42.0537 7.33524 42.0537C8.34204 42.0537 9.27692 42.2694 10.1399 42.6288C11.0029 42.9883 11.7939 43.4915 12.4411 44.1385C13.0884 44.7854 13.6637 45.5043 14.0232 46.367C14.3828 47.2296 14.5986 48.0923 14.5986 49.0268C14.5986 49.9614 14.3828 50.824 14.0232 51.6867ZM4.45867 50.177C4.6025 50.5365 4.89016 50.8959 5.17782 51.1835C5.46547 51.471 5.82504 51.6867 6.18461 51.9023C6.54418 52.0461 6.97567 52.1899 7.33524 52.1899C7.69481 52.1899 8.12629 52.118 8.48587 51.9023C8.84544 51.7586 9.205 51.471 9.49266 51.1835C9.78032 50.8959 9.99606 50.5365 10.2118 50.177C10.3556 49.8176 10.4995 49.3863 10.4995 49.0268C10.4995 48.6674 10.4275 48.2361 10.2118 47.8766C10.068 47.5172 9.78032 47.1577 9.49266 46.8702C9.205 46.5826 8.84544 46.367 8.48587 46.1513C8.12629 46.0075 7.69481 45.8638 7.33524 45.8638C6.97567 45.8638 6.54418 45.9357 6.18461 46.1513C5.82504 46.2951 5.46547 46.5826 5.17782 46.8702C4.89016 47.1577 4.67442 47.5172 4.45867 47.8766C4.31485 48.2361 4.17102 48.6674 4.17102 49.0268C4.17102 49.3863 4.24293 49.8176 4.45867 50.177Z" fill="#0053EC"/>
<path d="M30.5634 55.4248H26.3205V48.0923H26.1048L23.0125 51.7586L19.9202 48.0923H19.7044V55.4248H15.4615V42.6288H20.064L23.0125 46.0794L25.9609 42.6288H30.5634V55.4248Z" fill="#0053EC"/>
<path d="M36.3885 55.4248H32.0017V42.6288H36.2446V48.6674H36.4604L39.9123 42.6288H44.299V55.4248H40.0561V49.3863H39.9123L36.3885 55.4248Z" fill="#0053EC"/>
<path d="M53.7916 43.3477C54.4388 42.7007 55.3737 42.4131 56.6681 42.4131H58.0345V46.2232H57.4592C57.1715 46.2232 57.0277 46.367 57.0277 46.6545V46.9421C57.0277 47.2296 56.9558 47.5172 56.812 47.7328C56.6681 47.9485 56.5243 48.0923 56.3086 48.236C56.0928 48.3798 55.8771 48.5236 55.6613 48.5955V48.8111C55.949 48.883 56.2366 49.0268 56.4524 49.1706C56.6681 49.3144 56.812 49.4581 57.0277 49.7457C57.1715 49.9613 57.2434 50.3208 57.2434 50.6802V51.3272C57.2434 51.6148 57.3873 51.7585 57.6749 51.7585H58.2502V55.5686H56.8839C55.6613 55.5686 54.6545 55.281 54.0073 54.6341C53.3601 53.9871 53.0005 53.1963 53.0005 52.1899V51.2553C53.0005 50.9678 52.8567 50.824 52.569 50.824H49.9801V55.4248H45.7372V42.6288H49.9801V47.0139H52.3533C52.6409 47.0139 52.7848 46.8702 52.7848 46.5826V45.8637C52.7848 44.8573 53.1443 44.0665 53.7916 43.4196V43.3477Z" fill="#0053EC"/>
<path d="M68.3182 42.9882C68.9655 43.2038 69.5408 43.5633 70.0442 43.9946C70.5476 44.4259 70.9071 44.9291 71.1229 45.5761C71.4105 46.1512 71.4825 46.8701 71.4825 47.5171C71.4825 48.1641 71.3386 48.883 71.1229 49.4581C70.8352 50.0332 70.4757 50.6083 70.0442 51.0396C69.6127 51.4709 68.9655 51.8304 68.3182 52.046C67.671 52.2617 66.88 52.4055 66.017 52.4055H63.2843V55.3529H59.0413V42.5568H66.017C66.88 42.5568 67.5991 42.7006 68.3182 42.9163V42.9882ZM63.2843 48.8111H66.017C66.1608 48.8111 66.3046 48.8111 66.4485 48.6673C66.5923 48.5954 66.7361 48.5235 66.88 48.3797C67.0238 48.236 67.0957 48.0922 67.1676 47.9484C67.2395 47.8046 67.3114 47.6609 67.3114 47.5171C67.3114 47.3733 67.3114 47.2295 67.1676 47.0858C67.0957 46.942 67.0238 46.7982 66.88 46.6544C66.7361 46.5107 66.5923 46.4388 66.4485 46.3669C66.3046 46.295 66.1608 46.2231 66.017 46.2231H63.2843V48.8111Z" fill="#0053EC"/>
<path d="M86.0093 51.6867C85.6498 52.5493 85.0745 53.2682 84.4272 53.9152C83.78 54.5622 82.9889 55.0654 82.126 55.4249C81.263 55.7843 80.2562 56 79.3213 56C78.3864 56 77.3796 55.7843 76.4448 55.4249C75.5818 55.0654 74.7907 54.5622 74.1435 53.9152C73.4963 53.2682 72.921 52.5493 72.5614 51.6867C72.2018 50.824 71.9861 49.9614 71.9861 49.0268C71.9861 48.0923 72.2018 47.2296 72.5614 46.367C72.921 45.5043 73.4963 44.7855 74.1435 44.1385C74.7907 43.4915 75.5818 42.9883 76.4448 42.6288C77.3077 42.2694 78.3145 42.0537 79.3213 42.0537C80.3281 42.0537 81.263 42.2694 82.126 42.6288C82.9889 42.9883 83.78 43.4915 84.4272 44.1385C85.0745 44.7855 85.6498 45.5043 86.0093 46.367C86.3689 47.2296 86.5846 48.0923 86.5846 49.0268C86.5846 49.9614 86.3689 50.824 86.0093 51.6867ZM76.3728 50.177C76.5167 50.5365 76.8043 50.8959 77.092 51.1835C77.3796 51.471 77.7392 51.6867 78.0988 51.9024C78.4584 52.0461 78.8898 52.1899 79.2494 52.1899C79.609 52.1899 80.0405 52.118 80.4 51.9024C80.7596 51.6867 81.1192 51.471 81.4068 51.1835C81.6945 50.8959 81.9102 50.5365 82.126 50.177C82.2698 49.8176 82.4136 49.3863 82.4136 49.0268C82.4136 48.6674 82.3417 48.2361 82.126 47.8766C81.9102 47.5172 81.6945 47.1578 81.4068 46.8702C81.1192 46.5827 80.7596 46.367 80.4 46.1513C80.0405 46.0076 79.609 45.8638 79.2494 45.8638C78.8898 45.8638 78.4584 45.9357 78.0988 46.1513C77.7392 46.2951 77.3796 46.5827 77.092 46.8702C76.8043 47.1578 76.5886 47.5172 76.3728 47.8766C76.229 48.2361 76.0852 48.6674 76.0852 49.0268C76.0852 49.3863 76.1571 49.8176 76.3728 50.177Z" fill="#0053EC"/>
<path d="M91.6905 42.6288V47.2296H95.3581V42.6288H99.6011V55.4248H95.3581V51.0397H91.6905V55.4248H87.4476V42.6288H91.6905Z" fill="#0053EC"/>
<path d="M60.554 14.8486C62.3936 14.8486 63.8849 13.354 63.8849 11.5104C63.8849 9.66682 62.3936 8.17229 60.554 8.17229C58.7144 8.17229 57.2231 9.66682 57.2231 11.5104C57.2231 13.354 58.7144 14.8486 60.554 14.8486Z" fill="#0053EC"/>
<path d="M47.6747 24.7888C47.4526 24.7888 47.2306 24.5663 47.2306 24.3437V20.9314C51.1536 19.5961 53.8923 15.8129 53.8923 11.5104C53.8923 7.20794 49.4511 1.49602 43.8997 1.49602C38.3483 1.49602 33.9071 5.94686 33.9071 11.5104C33.9071 17.074 36.7198 19.5961 40.6429 21.0056V26.124C40.6429 29.0913 43.0115 31.5392 45.9722 31.5392H63.1447V24.7888H47.6747ZM43.9737 8.17229C45.8242 8.17229 47.3046 9.6559 47.3046 11.5104C47.3046 13.3649 45.8242 14.8486 43.9737 14.8486C42.1232 14.8486 40.6429 13.3649 40.6429 11.5104C40.6429 9.6559 42.1232 8.17229 43.9737 8.17229Z" fill="#0053EC"/>
</svg>
